<mxfile host="65bd71144e">
    <diagram id="sQ8jioP4HXLknQMlkJwJ" name="Page-1">
        <mxGraphModel dx="761" dy="1879" grid="1" gridSize="10" guides="1" tooltips="1" connect="1" arrows="1" fold="1" page="1" pageScale="1" pageWidth="850" pageHeight="1100" math="0" shadow="0">
            <root>
                <mxCell id="0"/>
                <mxCell id="1" parent="0"/>
                <mxCell id="2" value="«interface»&lt;br&gt;&lt;div style=&quot;background-color: rgb(255 , 255 , 255) ; font-family: &amp;#34;consolas&amp;#34; , &amp;#34;courier new&amp;#34; , monospace ; font-size: 14px ; line-height: 19px&quot;&gt;&lt;span style=&quot;color: #267f99&quot;&gt;OpenElementIntf&lt;/span&gt;&lt;/div&gt;" style="html=1;" parent="1" vertex="1">
                    <mxGeometry x="75" y="100" width="150" height="50" as="geometry"/>
                </mxCell>
                <mxCell id="3" value="OpenElementBase" style="swimlane;fontStyle=0;childLayout=stackLayout;horizontal=1;startSize=26;fillColor=none;horizontalStack=0;resizeParent=1;resizeParentMax=0;resizeLast=0;collapsible=1;marginBottom=0;" parent="1" vertex="1">
                    <mxGeometry x="40" y="210" width="220" height="52" as="geometry"/>
                </mxCell>
                <mxCell id="4" value="+ relationalElements: type" style="text;strokeColor=none;fillColor=none;align=left;verticalAlign=top;spacingLeft=4;spacingRight=4;overflow=hidden;rotatable=0;points=[[0,0.5],[1,0.5]];portConstraint=eastwest;" parent="3" vertex="1">
                    <mxGeometry y="26" width="220" height="26" as="geometry"/>
                </mxCell>
                <mxCell id="8" value="OpenElementUnit" style="swimlane;fontStyle=0;childLayout=stackLayout;horizontal=1;startSize=26;fillColor=none;horizontalStack=0;resizeParent=1;resizeParentMax=0;resizeLast=0;collapsible=1;marginBottom=0;" parent="1" vertex="1">
                    <mxGeometry x="40" y="320" width="220" height="52" as="geometry"/>
                </mxCell>
                <mxCell id="9" value="+ fields: type" style="text;strokeColor=none;fillColor=none;align=left;verticalAlign=top;spacingLeft=4;spacingRight=4;overflow=hidden;rotatable=0;points=[[0,0.5],[1,0.5]];portConstraint=eastwest;" parent="8" vertex="1">
                    <mxGeometry y="26" width="220" height="26" as="geometry"/>
                </mxCell>
                <mxCell id="11" value="Extends" style="endArrow=block;endSize=16;endFill=0;html=1;exitX=0.5;exitY=0;exitDx=0;exitDy=0;" parent="1" source="8" target="3" edge="1">
                    <mxGeometry x="-0.3103" y="10" width="160" relative="1" as="geometry">
                        <mxPoint x="170" y="310" as="sourcePoint"/>
                        <mxPoint x="80" y="280" as="targetPoint"/>
                        <mxPoint as="offset"/>
                    </mxGeometry>
                </mxCell>
                <mxCell id="12" value="Extends" style="endArrow=block;endSize=16;endFill=0;html=1;exitX=0.5;exitY=0;exitDx=0;exitDy=0;" parent="1" source="3" target="2" edge="1">
                    <mxGeometry x="-0.3333" width="160" relative="1" as="geometry">
                        <mxPoint x="140" y="190" as="sourcePoint"/>
                        <mxPoint x="300" y="190" as="targetPoint"/>
                        <mxPoint as="offset"/>
                    </mxGeometry>
                </mxCell>
                <mxCell id="13" value="OpenElementCore" style="swimlane;fontStyle=0;childLayout=stackLayout;horizontal=1;startSize=26;fillColor=none;horizontalStack=0;resizeParent=1;resizeParentMax=0;resizeLast=0;collapsible=1;marginBottom=0;" parent="1" vertex="1">
                    <mxGeometry x="40" y="430" width="220" height="78" as="geometry"/>
                </mxCell>
                <mxCell id="16" value="+ metadata: type" style="text;strokeColor=none;fillColor=none;align=left;verticalAlign=top;spacingLeft=4;spacingRight=4;overflow=hidden;rotatable=0;points=[[0,0.5],[1,0.5]];portConstraint=eastwest;" parent="13" vertex="1">
                    <mxGeometry y="26" width="220" height="26" as="geometry"/>
                </mxCell>
                <mxCell id="14" value="+ schema: type" style="text;strokeColor=none;fillColor=none;align=left;verticalAlign=top;spacingLeft=4;spacingRight=4;overflow=hidden;rotatable=0;points=[[0,0.5],[1,0.5]];portConstraint=eastwest;" parent="13" vertex="1">
                    <mxGeometry y="52" width="220" height="26" as="geometry"/>
                </mxCell>
                <mxCell id="15" value="Extends" style="endArrow=block;endSize=16;endFill=0;html=1;exitX=0.5;exitY=0;exitDx=0;exitDy=0;entryX=0.503;entryY=0.962;entryDx=0;entryDy=0;entryPerimeter=0;" parent="1" source="13" target="9" edge="1">
                    <mxGeometry width="160" relative="1" as="geometry">
                        <mxPoint x="40" y="520" as="sourcePoint"/>
                        <mxPoint x="200" y="520" as="targetPoint"/>
                    </mxGeometry>
                </mxCell>
                <mxCell id="17" value="OpenElement" style="swimlane;fontStyle=0;childLayout=stackLayout;horizontal=1;startSize=26;fillColor=none;horizontalStack=0;resizeParent=1;resizeParentMax=0;resizeLast=0;collapsible=1;marginBottom=0;" parent="1" vertex="1">
                    <mxGeometry x="40" y="570" width="220" height="52" as="geometry"/>
                </mxCell>
                <mxCell id="19" value="+ data: type" style="text;strokeColor=none;fillColor=none;align=left;verticalAlign=top;spacingLeft=4;spacingRight=4;overflow=hidden;rotatable=0;points=[[0,0.5],[1,0.5]];portConstraint=eastwest;" parent="17" vertex="1">
                    <mxGeometry y="26" width="220" height="26" as="geometry"/>
                </mxCell>
                <mxCell id="21" value="Extends" style="endArrow=block;endSize=16;endFill=0;html=1;exitX=0.5;exitY=0;exitDx=0;exitDy=0;" parent="1" source="17" edge="1">
                    <mxGeometry width="160" relative="1" as="geometry">
                        <mxPoint x="90" y="690" as="sourcePoint"/>
                        <mxPoint x="150" y="510" as="targetPoint"/>
                    </mxGeometry>
                </mxCell>
                <mxCell id="22" value="OpenElementData" style="swimlane;fontStyle=0;childLayout=stackLayout;horizontal=1;startSize=26;fillColor=none;horizontalStack=0;resizeParent=1;resizeParentMax=0;resizeLast=0;collapsible=1;marginBottom=0;" parent="1" vertex="1">
                    <mxGeometry x="330" y="570" width="220" height="78" as="geometry"/>
                </mxCell>
                <mxCell id="23" value="+ data: type&#10;" style="text;strokeColor=none;fillColor=none;align=left;verticalAlign=top;spacingLeft=4;spacingRight=4;overflow=hidden;rotatable=0;points=[[0,0.5],[1,0.5]];portConstraint=eastwest;" parent="22" vertex="1">
                    <mxGeometry y="26" width="220" height="26" as="geometry"/>
                </mxCell>
                <mxCell id="27" value="+ datavalues: type&#10;" style="text;strokeColor=none;fillColor=none;align=left;verticalAlign=top;spacingLeft=4;spacingRight=4;overflow=hidden;rotatable=0;points=[[0,0.5],[1,0.5]];portConstraint=eastwest;" parent="22" vertex="1">
                    <mxGeometry y="52" width="220" height="26" as="geometry"/>
                </mxCell>
                <mxCell id="24" value="Extends" style="endArrow=block;endSize=16;endFill=0;html=1;exitX=0.5;exitY=0;exitDx=0;exitDy=0;" parent="1" source="22" edge="1">
                    <mxGeometry width="160" relative="1" as="geometry">
                        <mxPoint x="300" y="510" as="sourcePoint"/>
                        <mxPoint x="150" y="510" as="targetPoint"/>
                        <Array as="points">
                            <mxPoint x="440" y="550"/>
                            <mxPoint x="150" y="550"/>
                        </Array>
                    </mxGeometry>
                </mxCell>
                <mxCell id="28" value="1" style="endArrow=open;html=1;endSize=12;startArrow=diamondThin;startSize=14;startFill=1;edgeStyle=orthogonalEdgeStyle;align=left;verticalAlign=bottom;exitX=0.009;exitY=0.175;exitDx=0;exitDy=0;exitPerimeter=0;entryX=1;entryY=0.5;entryDx=0;entryDy=0;" parent="1" source="22" target="19" edge="1">
                    <mxGeometry x="-1" y="3" relative="1" as="geometry">
                        <mxPoint x="160" y="630" as="sourcePoint"/>
                        <mxPoint x="320" y="630" as="targetPoint"/>
                    </mxGeometry>
                </mxCell>
                <mxCell id="29" value="OpenElementField" style="swimlane;fontStyle=0;childLayout=stackLayout;horizontal=1;startSize=26;fillColor=none;horizontalStack=0;resizeParent=1;resizeParentMax=0;resizeLast=0;collapsible=1;marginBottom=0;" parent="1" vertex="1">
                    <mxGeometry x="370" y="320" width="220" height="78" as="geometry"/>
                </mxCell>
                <mxCell id="30" value="+ data: type&#10;" style="text;strokeColor=none;fillColor=none;align=left;verticalAlign=top;spacingLeft=4;spacingRight=4;overflow=hidden;rotatable=0;points=[[0,0.5],[1,0.5]];portConstraint=eastwest;" parent="29" vertex="1">
                    <mxGeometry y="26" width="220" height="26" as="geometry"/>
                </mxCell>
                <mxCell id="31" value="+ fieldvalue: type&#10;" style="text;strokeColor=none;fillColor=none;align=left;verticalAlign=top;spacingLeft=4;spacingRight=4;overflow=hidden;rotatable=0;points=[[0,0.5],[1,0.5]];portConstraint=eastwest;" parent="29" vertex="1">
                    <mxGeometry y="52" width="220" height="26" as="geometry"/>
                </mxCell>
                <mxCell id="32" value="Extends" style="endArrow=block;endSize=16;endFill=0;html=1;exitX=0.5;exitY=0;exitDx=0;exitDy=0;entryX=0.5;entryY=1;entryDx=0;entryDy=0;" parent="1" source="29" target="3" edge="1">
                    <mxGeometry x="-0.3103" y="10" width="160" relative="1" as="geometry">
                        <mxPoint x="160" y="330" as="sourcePoint"/>
                        <mxPoint x="160" y="272" as="targetPoint"/>
                        <Array as="points">
                            <mxPoint x="480" y="300"/>
                            <mxPoint x="150" y="300"/>
                        </Array>
                        <mxPoint as="offset"/>
                    </mxGeometry>
                </mxCell>
                <mxCell id="33" value="Relation" style="endArrow=open;html=1;endSize=12;startArrow=diamondThin;startSize=14;startFill=0;edgeStyle=orthogonalEdgeStyle;entryX=0.002;entryY=-0.103;entryDx=0;entryDy=0;entryPerimeter=0;exitX=1;exitY=0.5;exitDx=0;exitDy=0;" parent="1" source="9" target="30" edge="1">
                    <mxGeometry relative="1" as="geometry">
                        <mxPoint x="300" y="420" as="sourcePoint"/>
                        <mxPoint x="460" y="420" as="targetPoint"/>
                    </mxGeometry>
                </mxCell>
                <mxCell id="34" value="0..n" style="edgeLabel;resizable=0;html=1;align=left;verticalAlign=top;" parent="33" connectable="0" vertex="1">
                    <mxGeometry x="-1" relative="1" as="geometry"/>
                </mxCell>
                <mxCell id="35" value="1" style="edgeLabel;resizable=0;html=1;align=right;verticalAlign=top;" parent="33" connectable="0" vertex="1">
                    <mxGeometry x="1" relative="1" as="geometry"/>
                </mxCell>
                <mxCell id="36" value="OpenElementMetadata" style="swimlane;fontStyle=0;childLayout=stackLayout;horizontal=1;startSize=26;fillColor=none;horizontalStack=0;resizeParent=1;resizeParentMax=0;resizeLast=0;collapsible=1;marginBottom=0;" parent="1" vertex="1">
                    <mxGeometry x="370" y="430" width="220" height="52" as="geometry"/>
                </mxCell>
                <mxCell id="37" value="+ relSeqs: type&#10;" style="text;strokeColor=none;fillColor=none;align=left;verticalAlign=top;spacingLeft=4;spacingRight=4;overflow=hidden;rotatable=0;points=[[0,0.5],[1,0.5]];portConstraint=eastwest;" parent="36" vertex="1">
                    <mxGeometry y="26" width="220" height="26" as="geometry"/>
                </mxCell>
                <mxCell id="39" value="Extends" style="endArrow=block;endSize=16;endFill=0;html=1;exitX=0.5;exitY=0;exitDx=0;exitDy=0;entryX=0.5;entryY=1;entryDx=0;entryDy=0;" parent="1" source="36" edge="1">
                    <mxGeometry x="-0.3103" y="10" width="160" relative="1" as="geometry">
                        <mxPoint x="480" y="430" as="sourcePoint"/>
                        <mxPoint x="150" y="371.9999999999999" as="targetPoint"/>
                        <Array as="points">
                            <mxPoint x="480" y="410"/>
                            <mxPoint x="150" y="410"/>
                        </Array>
                        <mxPoint as="offset"/>
                    </mxGeometry>
                </mxCell>
                <mxCell id="40" value="OpenElementProcessSeq" style="swimlane;fontStyle=0;childLayout=stackLayout;horizontal=1;startSize=26;fillColor=none;horizontalStack=0;resizeParent=1;resizeParentMax=0;resizeLast=0;collapsible=1;marginBottom=0;" parent="1" vertex="1">
                    <mxGeometry x="600" y="570" width="220" height="78" as="geometry"/>
                </mxCell>
                <mxCell id="41" value="+ targetId: type&#10;" style="text;strokeColor=none;fillColor=none;align=left;verticalAlign=top;spacingLeft=4;spacingRight=4;overflow=hidden;rotatable=0;points=[[0,0.5],[1,0.5]];portConstraint=eastwest;" parent="40" vertex="1">
                    <mxGeometry y="26" width="220" height="26" as="geometry"/>
                </mxCell>
                <mxCell id="42" value="+ sourceId: type&#10;" style="text;strokeColor=none;fillColor=none;align=left;verticalAlign=top;spacingLeft=4;spacingRight=4;overflow=hidden;rotatable=0;points=[[0,0.5],[1,0.5]];portConstraint=eastwest;" parent="40" vertex="1">
                    <mxGeometry y="52" width="220" height="26" as="geometry"/>
                </mxCell>
                <mxCell id="43" value="Extends" style="endArrow=block;endSize=16;endFill=0;html=1;exitX=0.5;exitY=0;exitDx=0;exitDy=0;" parent="1" source="40" edge="1">
                    <mxGeometry width="160" relative="1" as="geometry">
                        <mxPoint x="440" y="568" as="sourcePoint"/>
                        <mxPoint x="150" y="508" as="targetPoint"/>
                        <Array as="points">
                            <mxPoint x="710" y="548"/>
                            <mxPoint x="150" y="548"/>
                        </Array>
                    </mxGeometry>
                </mxCell>
                <mxCell id="45" value="OpenElementRel" style="swimlane;fontStyle=0;childLayout=stackLayout;horizontal=1;startSize=26;fillColor=none;horizontalStack=0;resizeParent=1;resizeParentMax=0;resizeLast=0;collapsible=1;marginBottom=0;" parent="1" vertex="1">
                    <mxGeometry x="850" y="570" width="220" height="78" as="geometry"/>
                </mxCell>
                <mxCell id="46" value="+ compositerId: type&#10;" style="text;strokeColor=none;fillColor=none;align=left;verticalAlign=top;spacingLeft=4;spacingRight=4;overflow=hidden;rotatable=0;points=[[0,0.5],[1,0.5]];portConstraint=eastwest;" parent="45" vertex="1">
                    <mxGeometry y="26" width="220" height="26" as="geometry"/>
                </mxCell>
                <mxCell id="47" value="+ composeeId: type&#10;" style="text;strokeColor=none;fillColor=none;align=left;verticalAlign=top;spacingLeft=4;spacingRight=4;overflow=hidden;rotatable=0;points=[[0,0.5],[1,0.5]];portConstraint=eastwest;" parent="45" vertex="1">
                    <mxGeometry y="52" width="220" height="26" as="geometry"/>
                </mxCell>
                <mxCell id="48" value="Extends" style="endArrow=block;endSize=16;endFill=0;html=1;exitX=0.5;exitY=0;exitDx=0;exitDy=0;" parent="1" source="45" edge="1">
                    <mxGeometry width="160" relative="1" as="geometry">
                        <mxPoint x="710" y="570" as="sourcePoint"/>
                        <mxPoint x="150" y="508.0000000000001" as="targetPoint"/>
                        <Array as="points">
                            <mxPoint x="960" y="548"/>
                            <mxPoint x="150" y="548"/>
                        </Array>
                    </mxGeometry>
                </mxCell>
                <mxCell id="51" value="OpenElementSchema" style="swimlane;fontStyle=0;childLayout=stackLayout;horizontal=1;startSize=26;fillColor=none;horizontalStack=0;resizeParent=1;resizeParentMax=0;resizeLast=0;collapsible=1;marginBottom=0;" parent="1" vertex="1">
                    <mxGeometry x="720" y="430" width="220" height="52" as="geometry"/>
                </mxCell>
                <mxCell id="53" value="Extends" style="endArrow=block;endSize=16;endFill=0;html=1;exitX=0;exitY=0.5;exitDx=0;exitDy=0;entryX=0.993;entryY=0.01;entryDx=0;entryDy=0;entryPerimeter=0;" parent="1" source="51" target="37" edge="1">
                    <mxGeometry width="160" relative="1" as="geometry">
                        <mxPoint x="660" y="372" as="sourcePoint"/>
                        <mxPoint x="820" y="372" as="targetPoint"/>
                    </mxGeometry>
                </mxCell>
                <mxCell id="54" value="OpenElementVersion" style="swimlane;fontStyle=0;childLayout=stackLayout;horizontal=1;startSize=26;fillColor=none;horizontalStack=0;resizeParent=1;resizeParentMax=0;resizeLast=0;collapsible=1;marginBottom=0;" parent="1" vertex="1">
                    <mxGeometry x="1100" y="570" width="220" height="52" as="geometry"/>
                </mxCell>
                <mxCell id="55" value="+ versionId: type&#10;" style="text;strokeColor=none;fillColor=none;align=left;verticalAlign=top;spacingLeft=4;spacingRight=4;overflow=hidden;rotatable=0;points=[[0,0.5],[1,0.5]];portConstraint=eastwest;" parent="54" vertex="1">
                    <mxGeometry y="26" width="220" height="26" as="geometry"/>
                </mxCell>
                <mxCell id="57" value="Extends" style="endArrow=block;endSize=16;endFill=0;html=1;exitX=0.5;exitY=0;exitDx=0;exitDy=0;" parent="1" source="54" edge="1">
                    <mxGeometry width="160" relative="1" as="geometry">
                        <mxPoint x="1100" y="548" as="sourcePoint"/>
                        <mxPoint x="150" y="508" as="targetPoint"/>
                        <Array as="points">
                            <mxPoint x="1210" y="550"/>
                            <mxPoint x="960" y="548"/>
                            <mxPoint x="150" y="548"/>
                        </Array>
                    </mxGeometry>
                </mxCell>
                <mxCell id="100" style="edgeStyle=none;html=1;entryX=0.432;entryY=-0.006;entryDx=0;entryDy=0;entryPerimeter=0;strokeColor=#000000;strokeWidth=1;" parent="1" source="58" target="59" edge="1">
                    <mxGeometry relative="1" as="geometry"/>
                </mxCell>
                <mxCell id="59" value="Product  Variant" style="swimlane;childLayout=stackLayout;horizontal=1;startSize=30;horizontalStack=0;rounded=1;fontSize=14;fontStyle=0;strokeWidth=2;resizeParent=0;resizeLast=1;shadow=0;dashed=0;align=center;" parent="1" vertex="1">
                    <mxGeometry x="1700" y="-280" width="460" height="140" as="geometry"/>
                </mxCell>
                <mxCell id="86" style="edgeStyle=none;html=1;strokeColor=#000000;strokeWidth=1;" parent="1" source="60" edge="1">
                    <mxGeometry relative="1" as="geometry">
                        <mxPoint x="1120" y="110" as="targetPoint"/>
                    </mxGeometry>
                </mxCell>
                <mxCell id="60" value="Product  Attribute" style="swimlane;childLayout=stackLayout;horizontal=1;startSize=30;horizontalStack=0;rounded=1;fontSize=14;fontStyle=0;strokeWidth=2;resizeParent=0;resizeLast=1;shadow=0;dashed=0;align=center;" parent="1" vertex="1">
                    <mxGeometry x="1500" y="379" width="460" height="140" as="geometry"/>
                </mxCell>
                <mxCell id="91" style="edgeStyle=none;html=1;strokeColor=#000000;strokeWidth=1;entryX=0;entryY=0.5;entryDx=0;entryDy=0;" parent="1" source="61" target="93" edge="1">
                    <mxGeometry relative="1" as="geometry">
                        <mxPoint x="1640" y="140" as="targetPoint"/>
                    </mxGeometry>
                </mxCell>
                <mxCell id="96" style="edgeStyle=none;html=1;strokeColor=#000000;strokeWidth=1;entryX=0.5;entryY=1;entryDx=0;entryDy=0;" parent="1" source="61" target="58" edge="1">
                    <mxGeometry relative="1" as="geometry">
                        <mxPoint x="1140" y="-100" as="targetPoint"/>
                    </mxGeometry>
                </mxCell>
                <mxCell id="61" value="Product  type (Running shoes kids 10-14 age)" style="swimlane;childLayout=stackLayout;horizontal=1;startSize=30;horizontalStack=0;rounded=1;fontSize=14;fontStyle=0;strokeWidth=2;resizeParent=0;resizeLast=1;shadow=0;dashed=0;align=center;" parent="1" vertex="1">
                    <mxGeometry x="800" y="-30" width="460" height="140" as="geometry"/>
                </mxCell>
                <mxCell id="92" style="edgeStyle=none;html=1;entryX=0.576;entryY=0.004;entryDx=0;entryDy=0;entryPerimeter=0;strokeColor=#000000;strokeWidth=1;" parent="1" source="62" target="63" edge="1">
                    <mxGeometry relative="1" as="geometry"/>
                </mxCell>
                <mxCell id="94" style="edgeStyle=none;html=1;entryX=0.5;entryY=0;entryDx=0;entryDy=0;strokeColor=#000000;strokeWidth=1;" parent="1" source="63" target="93" edge="1">
                    <mxGeometry relative="1" as="geometry"/>
                </mxCell>
                <mxCell id="63" value="Sub catagory ( footware)" style="swimlane;childLayout=stackLayout;horizontal=1;startSize=30;horizontalStack=0;rounded=1;fontSize=14;fontStyle=0;strokeWidth=2;resizeParent=0;resizeLast=1;shadow=0;dashed=0;align=center;" parent="1" vertex="1">
                    <mxGeometry x="2370" y="-270" width="460" height="140" as="geometry"/>
                </mxCell>
                <mxCell id="64" value="" style="endArrow=none;html=1;edgeStyle=orthogonalEdgeStyle;strokeColor=#FF3333;strokeWidth=7;" parent="1" edge="1">
                    <mxGeometry relative="1" as="geometry">
                        <mxPoint x="80" y="-40" as="sourcePoint"/>
                        <mxPoint x="1420" y="600" as="targetPoint"/>
                        <Array as="points">
                            <mxPoint x="80" y="-130"/>
                            <mxPoint x="700" y="-130"/>
                            <mxPoint x="700" y="370"/>
                            <mxPoint x="1420" y="370"/>
                        </Array>
                    </mxGeometry>
                </mxCell>
                <mxCell id="65" value="parent" style="edgeLabel;resizable=0;html=1;align=left;verticalAlign=bottom;" parent="64" connectable="0" vertex="1">
                    <mxGeometry x="-1" relative="1" as="geometry">
                        <mxPoint x="-20" y="-380" as="offset"/>
                    </mxGeometry>
                </mxCell>
                <mxCell id="66" value="child" style="edgeLabel;resizable=0;html=1;align=right;verticalAlign=bottom;" parent="64" connectable="0" vertex="1">
                    <mxGeometry x="1" relative="1" as="geometry">
                        <mxPoint x="150" as="offset"/>
                    </mxGeometry>
                </mxCell>
                <mxCell id="67" value="House" style="ellipse;whiteSpace=wrap;html=1;" parent="1" vertex="1">
                    <mxGeometry x="320" y="-350" width="140" height="70" as="geometry"/>
                </mxCell>
                <mxCell id="68" value="Rooms" style="ellipse;whiteSpace=wrap;html=1;" parent="1" vertex="1">
                    <mxGeometry x="300" y="-300" width="140" height="70" as="geometry"/>
                </mxCell>
                <mxCell id="69" value="Rooms" style="ellipse;whiteSpace=wrap;html=1;" parent="1" vertex="1">
                    <mxGeometry x="310" y="-290" width="140" height="70" as="geometry"/>
                </mxCell>
                <mxCell id="70" value="Rooms" style="ellipse;whiteSpace=wrap;html=1;" parent="1" vertex="1">
                    <mxGeometry x="320" y="-280" width="140" height="70" as="geometry"/>
                </mxCell>
                <mxCell id="71" value="stairs" style="ellipse;whiteSpace=wrap;html=1;" parent="1" vertex="1">
                    <mxGeometry x="430" y="-340" width="140" height="70" as="geometry"/>
                </mxCell>
                <mxCell id="72" value="balconey" style="ellipse;whiteSpace=wrap;html=1;" parent="1" vertex="1">
                    <mxGeometry x="240" y="-380" width="140" height="70" as="geometry"/>
                </mxCell>
                <mxCell id="73" value="door" style="ellipse;whiteSpace=wrap;html=1;" parent="1" vertex="1">
                    <mxGeometry x="430" y="-265" width="80" height="40" as="geometry"/>
                </mxCell>
                <mxCell id="74" value="window" style="ellipse;whiteSpace=wrap;html=1;" parent="1" vertex="1">
                    <mxGeometry x="330" y="-240" width="80" height="40" as="geometry"/>
                </mxCell>
                <mxCell id="75" value="balconey" style="ellipse;whiteSpace=wrap;html=1;" parent="1" vertex="1">
                    <mxGeometry x="390" y="-230" width="140" height="70" as="geometry"/>
                </mxCell>
                <mxCell id="78" value="Dimension" style="html=1;shape=mxgraph.infographic.ribbonSimple;notch1=20;notch2=0;align=center;verticalAlign=middle;fontSize=14;fontStyle=0;flipH=1;fillColor=#FFFFFF;" parent="1" vertex="1">
                    <mxGeometry x="390" y="-380" width="160" height="40" as="geometry"/>
                </mxCell>
                <mxCell id="80" value="buildtype" style="html=1;shape=mxgraph.infographic.ribbonSimple;notch1=20;notch2=0;align=center;verticalAlign=middle;fontSize=14;fontStyle=0;flipH=1;fillColor=#FFFFFF;" parent="1" vertex="1">
                    <mxGeometry x="390" y="-420" width="160" height="40" as="geometry"/>
                </mxCell>
                <mxCell id="81" value="Dimension" style="html=1;shape=mxgraph.infographic.ribbonSimple;notch1=20;notch2=0;align=center;verticalAlign=middle;fontSize=14;fontStyle=0;flipH=1;fillColor=#FFFFFF;" parent="1" vertex="1">
                    <mxGeometry x="100" y="-390" width="160" height="40" as="geometry"/>
                </mxCell>
                <mxCell id="83" value="Dimension" style="html=1;shape=mxgraph.infographic.ribbonSimple;notch1=20;notch2=0;align=center;verticalAlign=middle;fontSize=14;fontStyle=0;flipH=1;fillColor=#FFFFFF;" parent="1" vertex="1">
                    <mxGeometry x="160" y="-215" width="220" height="40" as="geometry"/>
                </mxCell>
                <mxCell id="84" value="1" style="endArrow=open;html=1;endSize=12;startArrow=diamondThin;startSize=14;startFill=1;edgeStyle=orthogonalEdgeStyle;align=left;verticalAlign=bottom;exitX=-0.002;exitY=-0.248;exitDx=0;exitDy=0;exitPerimeter=0;entryX=1;entryY=0.5;entryDx=0;entryDy=0;" parent="1" source="37" target="16" edge="1">
                    <mxGeometry x="-1" y="3" relative="1" as="geometry">
                        <mxPoint x="341.98" y="593.6500000000001" as="sourcePoint"/>
                        <mxPoint x="270" y="619" as="targetPoint"/>
                    </mxGeometry>
                </mxCell>
                <mxCell id="85" value="1" style="endArrow=open;html=1;endSize=12;startArrow=diamondThin;startSize=14;startFill=1;edgeStyle=orthogonalEdgeStyle;align=left;verticalAlign=bottom;exitX=0;exitY=1;exitDx=0;exitDy=0;" parent="1" source="51" target="14" edge="1">
                    <mxGeometry x="-1" y="3" relative="1" as="geometry">
                        <mxPoint x="379.55999999999995" y="459.5519999999997" as="sourcePoint"/>
                        <mxPoint x="270" y="479" as="targetPoint"/>
                    </mxGeometry>
                </mxCell>
                <mxCell id="87" value="Product  Attribute" style="swimlane;childLayout=stackLayout;horizontal=1;startSize=30;horizontalStack=0;rounded=1;fontSize=14;fontStyle=0;strokeWidth=2;resizeParent=0;resizeLast=1;shadow=0;dashed=0;align=center;" parent="1" vertex="1">
                    <mxGeometry x="1510" y="389" width="460" height="140" as="geometry"/>
                </mxCell>
                <mxCell id="88" value="Product  Attribute" style="swimlane;childLayout=stackLayout;horizontal=1;startSize=30;horizontalStack=0;rounded=1;fontSize=14;fontStyle=0;strokeWidth=2;resizeParent=0;resizeLast=1;shadow=0;dashed=0;align=center;" parent="1" vertex="1">
                    <mxGeometry x="1520" y="399" width="460" height="140" as="geometry"/>
                </mxCell>
                <mxCell id="89" value="Product  Attribute" style="swimlane;childLayout=stackLayout;horizontal=1;startSize=30;horizontalStack=0;rounded=1;fontSize=14;fontStyle=0;strokeWidth=2;resizeParent=0;resizeLast=1;shadow=0;dashed=0;align=center;" parent="1" vertex="1">
                    <mxGeometry x="1530" y="409" width="460" height="140" as="geometry"/>
                </mxCell>
                <mxCell id="90" value="Product  Attribute" style="swimlane;childLayout=stackLayout;horizontal=1;startSize=30;horizontalStack=0;rounded=1;fontSize=14;fontStyle=0;strokeWidth=2;resizeParent=0;resizeLast=1;shadow=0;dashed=0;align=center;" parent="1" vertex="1">
                    <mxGeometry x="1540" y="419" width="460" height="140" as="geometry"/>
                </mxCell>
                <mxCell id="93" value="&#10;&#10;Sub catagory (Kids)--&gt; sports --&gt; running &#10;&#10;sports--&gt; running--&gt;kids" style="swimlane;childLayout=stackLayout;horizontal=1;startSize=30;horizontalStack=0;rounded=1;fontSize=14;fontStyle=0;strokeWidth=2;resizeParent=0;resizeLast=1;shadow=0;dashed=0;align=center;" parent="1" vertex="1">
                    <mxGeometry x="2390" y="60" width="460" height="170" as="geometry"/>
                </mxCell>
                <mxCell id="97" value="Product  Variant" style="swimlane;childLayout=stackLayout;horizontal=1;startSize=30;horizontalStack=0;rounded=1;fontSize=14;fontStyle=0;strokeWidth=2;resizeParent=0;resizeLast=1;shadow=0;dashed=0;align=center;" parent="1" vertex="1">
                    <mxGeometry x="1710" y="-270" width="460" height="140" as="geometry"/>
                </mxCell>
                <mxCell id="98" value="Product  Variant" style="swimlane;childLayout=stackLayout;horizontal=1;startSize=30;horizontalStack=0;rounded=1;fontSize=14;fontStyle=0;strokeWidth=2;resizeParent=0;resizeLast=1;shadow=0;dashed=0;align=center;" parent="1" vertex="1">
                    <mxGeometry x="1720" y="-260" width="460" height="140" as="geometry"/>
                </mxCell>
                <mxCell id="101" style="edgeStyle=none;html=1;" parent="1" source="99" target="90" edge="1">
                    <mxGeometry relative="1" as="geometry"/>
                </mxCell>
                <mxCell id="99" value="Product  Variant (sellable)" style="swimlane;childLayout=stackLayout;horizontal=1;startSize=30;horizontalStack=0;rounded=1;fontSize=14;fontStyle=0;strokeWidth=2;resizeParent=0;resizeLast=1;shadow=0;dashed=0;align=center;" parent="1" vertex="1">
                    <mxGeometry x="1730" y="-250" width="460" height="140" as="geometry"/>
                </mxCell>
                <mxCell id="107" value="CAAS CATAGORY SERVICE" style="swimlane;" parent="1" vertex="1">
                    <mxGeometry x="2320" y="-870" width="650" height="1260" as="geometry">
                        <mxRectangle x="2320" y="-870" width="190" height="23" as="alternateBounds"/>
                    </mxGeometry>
                </mxCell>
                <mxCell id="62" value="Catagory (clothing access)" style="swimlane;childLayout=stackLayout;horizontal=1;startSize=30;horizontalStack=0;rounded=1;fontSize=14;fontStyle=0;strokeWidth=2;resizeParent=0;resizeLast=1;shadow=0;dashed=0;align=center;" parent="107" vertex="1">
                    <mxGeometry x="70" y="280" width="460" height="140" as="geometry"/>
                </mxCell>
                <mxCell id="113" style="edgeStyle=none;html=1;" parent="1" source="109" target="112" edge="1">
                    <mxGeometry relative="1" as="geometry"/>
                </mxCell>
                <mxCell id="116" style="edgeStyle=none;html=1;entryX=0;entryY=0.25;entryDx=0;entryDy=0;" parent="1" source="109" target="114" edge="1">
                    <mxGeometry relative="1" as="geometry"/>
                </mxCell>
                <mxCell id="109" value="CAAS PRODUCT LCM SERVICE (Write)" style="swimlane;" parent="1" vertex="1">
                    <mxGeometry x="990" y="-850" width="650" height="490" as="geometry">
                        <mxRectangle x="990" y="-850" width="260" height="23" as="alternateBounds"/>
                    </mxGeometry>
                </mxCell>
                <mxCell id="115" style="edgeStyle=none;html=1;entryX=0.5;entryY=0;entryDx=0;entryDy=0;" parent="1" source="110" target="117" edge="1">
                    <mxGeometry relative="1" as="geometry"/>
                </mxCell>
                <mxCell id="118" value="&lt;font style=&quot;font-size: 19px&quot;&gt;&lt;b&gt;used By NPS to getch data from CAAS&lt;/b&gt;&lt;/font&gt;" style="edgeStyle=none;html=1;" edge="1" parent="1" source="110">
                    <mxGeometry relative="1" as="geometry">
                        <mxPoint x="1980" y="-960" as="targetPoint"/>
                    </mxGeometry>
                </mxCell>
                <mxCell id="110" value="CAAS PRODUCT CATALOG SERVICE (READ)" style="swimlane;" parent="1" vertex="1">
                    <mxGeometry x="1640" y="-850" width="650" height="490" as="geometry">
                        <mxRectangle x="1640" y="-850" width="290" height="23" as="alternateBounds"/>
                    </mxGeometry>
                </mxCell>
                <mxCell id="58" value="Product " style="swimlane;childLayout=stackLayout;horizontal=1;startSize=30;horizontalStack=0;rounded=1;fontSize=14;fontStyle=0;strokeWidth=2;resizeParent=0;resizeLast=1;shadow=0;dashed=0;align=center;" parent="110" vertex="1">
                    <mxGeometry x="-260" y="140" width="460" height="140" as="geometry"/>
                </mxCell>
                <mxCell id="112" value="Product Type LCM" style="swimlane;" parent="1" vertex="1">
                    <mxGeometry x="790" y="-70" width="1230" height="690" as="geometry">
                        <mxRectangle x="790" y="-70" width="140" height="23" as="alternateBounds"/>
                    </mxGeometry>
                </mxCell>
                <mxCell id="114" value="PRoduct Variants (LCM) (WRITE)" style="swimlane;" parent="1" vertex="1">
                    <mxGeometry x="1630" y="-330" width="330" height="250" as="geometry"/>
                </mxCell>
                <mxCell id="117" value="PRoduct Variants Catalog SErvice (READ)" style="swimlane;" parent="1" vertex="1">
                    <mxGeometry x="1960" y="-330" width="330" height="250" as="geometry"/>
                </mxCell>
            </root>
        </mxGraphModel>
    </diagram>
</mxfile>